<?xml version="1.0" encoding="UTF-8"?>
<svg id="_Слой_2" data-name="Слой 2" xmlns="http://www.w3.org/2000/svg" viewBox="0 0 64 64">
  <defs>
    <style>
      .cls-1 {
        fill: #222;
      }

      .cls-2 {
        fill: #0a0a0a;
      }

      .cls-3 {
        fill: #e8e8e8;
      }

      .cls-4 {
        fill: #ececec;
      }

      .cls-5 {
        fill: #fefefe;
      }
    </style>
  </defs>
  <g id="_Слой_1-2" data-name="Слой 1">
    <g>
      <path class="cls-5" d="M63.94,36.42c0,8.33-.07,16.66,.05,24.99,.03,1.98-.25,2.58-2.45,2.57-19.62-.11-39.24-.13-58.86,.02C.2,64.02,0,63.3,0,61.16,.09,41.72,.09,22.28,0,2.84,0,.71,.19-.02,2.69,0,22.3,.15,41.92,.13,61.54,.02c2.19-.01,2.49,.57,2.46,2.57-.14,7.68-.06,15.35-.06,23.03-2.1,.38-1.7-1.52-2.23-2.51-2.6-4.87-5.87-9-11.44-10.72-1.91-.59-3.43-1.82-4.94-3.11-8.04-6.86-17.69-6.82-25.8,.14-1.64,1.41-3.47,2.4-5.41,3.32C.66,19.1-1.74,34.73,8.94,45.15c1.55,1.51,5.86,2.34,2.73,6.26-.53,.66,.97,1.04,1.65,1.34,3.43,1.49,7.08,.98,10.66,1.1,2.66,.08,5.35,.1,6.36,3.24,.19-4.13-2.55-5.7-6.07-6.47-7.41-1.61-11.25-6.8-13.6-13.47-.54-1.54-1.17-3.3,.26-4.61,1.29-1.18,2.82-.37,4.14,.25,2.09,.98,4.29,1.64,6.53,2.08,5.27,1.05,8.85,3.98,10.85,9.69,.82-1.81,1.21-3.35,2.21-4.53,1.62-1.89,3.47-3.47,5.82-4.38,3.12-.94,6.38-1.41,9.37-2.85,1.3-.62,2.78-1.43,4.15-.31,1.49,1.23,.34,2.74,.1,4.1-.28,1.61-.95,3.11-1.87,4.78,1.35-2.11,1.81-4.26,2.39-6.37,.49-1.8,.98-3.58-1.63-4.25-1.67-.43-1.74-1.85-1.52-3.17,.62-3.61,.53-7.14-.64-10.65-.36-1.09-.59-2.4,.5-3.17,1.34-.96,2.44,.05,3.49,.84,11.77,8.86,10.8,26.04-2.08,33.16-3.79,2.09-8.51,1.28-12.65,2.9-3.02,1.19-5.26,2.55-5.61,6.55,1.16-2.8,3.21-3.3,5.48-3.36,2.62-.08,5.4,.52,7.8-.3,1.76-.6,7.06,1.33,4.38-4.21-.04-.08,0-.34,.14-.45,4.59-3.51,7.5-8.58,11.65-12.49Z"/>
      <path class="cls-2" d="M35.51,40.49c-.92,2.51-1.84,5.01-2.76,7.52-1.1-13.64-14.04-10.72-21.35-15.55,.26,8.47,4.83,14.86,12.76,16.78,6.14,1.49,8.58,1.55,6.76,12.45-.3-.05-.86-.12-.86-.15,.46-6.63-3.46-6.86-8.57-6.36-4.86,.47-9.57-.61-13.61-3.79,1.18-1.93,3.01-.75,4.51-1.85-1.81-1.55-3.69-2.95-5.33-4.6C-3.11,34.72,0,17.72,13.15,11.81c2.26-1.01,4.22-2.21,6.09-3.87,7.44-6.62,19.04-6.6,26.47-.01,1.73,1.53,3.45,2.87,5.63,3.68,6.61,2.47,9.8,8.08,12.59,14.01v10.8c-3.33,4.66-5.64,10.17-12.81,13.07,3.03,.55,4.36,.8,6.23,1.14-2.76,3.39-6.32,3.74-9.68,4.4-1.59,.31-3.3,.44-4.89,.19-5.15-.79-9.04-.28-6.97,7.96-4.43-6.64-2.51-11.8,3.31-13.39,2.18-.59,4.25-1.6,6.37-2.42,1.1-.43,2.07-2.29,3.16,.41,.54,1.32,2.36-.2,3.36-.75,6.34-3.53,9.88-8.9,9.95-16.26,.08-7.76-3.65-13.26-11.02-17.44,1.79,5.95,3.35,11.25,.5,17.91,4.18-3.75,5.05-2.38,4.53,1.06-.7,4.68-1.74,9.24-5.79,12.58,1.02-4.15,3.81-7.83,3.67-12.55-4.28,2.33-8.57,3.74-13.13,4.31-.88,.36-1.37-.02-1.64-.84,.67-2.38,2.84-2.57,4.67-2.94,4.28-.86,5.88-3.59,6.12-7.65,.43-7.49-3.52-14.34-10.26-17.5-6.45-3.03-13.93-1.68-19.25,3.91-2.64,2.78-5.88,3.99-9.17,5.64-7.73,3.89-9.34,16.35-3.7,23.22,1.14,1.39,2.46,2.61,4.1,3.7-1.9-2.97-2.77-6.27-3.44-9.62-.47-2.4-1.02-4.82,1.45-6.69,1.72-1.3,.77-3.35,1-5.06,.27-2.05-.07-5,2.73-4.88,2.04,.08,1.57,2.85,1.69,4.57,.13,1.79,.02,3.59,.49,5.35,.49,1.81,1.28,3.56,3.18,4.06,5.1,1.35,9.85,3.34,14.01,6.65,.47,.37,1.27,.19,1.92,.32,.71,.31,1.27,.7,.88,1.61Z"/>
      <path class="cls-1" d="M39.39,35.56c.45,.35,.91,.71,1.36,1.06-1.75,1.29-3.49,2.58-5.24,3.87-.34-.37-.69-.74-1.03-1.12,.05-3.31,1.86-4.35,4.9-3.81Z"/>
      <path class="cls-5" d="M39.39,35.56c-2.12,.64-3.95,1.67-4.9,3.81-1.09,1.05-1.84,3.53-3.58,.37-1.67-3.03-4.69-4.42-7.96-5.24-8-1.99-9.4-3.86-9.14-12.09,.05-1.43,0-2.87,0-4.73-2.66,2.23-1.65,4.96-1.96,7.36-.2,1.54,1.76,4.29-2.32,3.97-1.07-.08-.62,2.27-.51,3.47,.49,5.3,2.73,9.95,5.94,14.11-1.7,1.36-2.7,.11-3.7-.55C1.03,39.27,.02,24.44,9.38,16.52c1.24-1.05,2.46-4.42,5.4-1.29,.81,.86,1.83-1.72,2.65-2.77,5.34-6.82,14.07-9.36,21.97-6.28,7.72,3.02,12.58,11.14,11.74,19.6-.44,4.42-1.93,7.87-7.08,8.41-1.58,.17-3.11,.89-4.66,1.37Z"/>
      <path class="cls-3" d="M27.93,52.66c-4.97,.72-9.93,1.52-15.49-1.04,5.87-1.55,10.72-.56,15.49,1.04Z"/>
      <path class="cls-4" d="M52.18,51.83c-5.3,2.26-10.18,1.54-15.13,1.2,3.53-2.14,10.29-2.79,15.13-1.2Z"/>
    </g>
  </g>
</svg>