<?xml version="1.0" encoding="utf-8"?>
<!-- Generator: Adobe Illustrator 27.0.1, SVG Export Plug-In . SVG Version: 6.00 Build 0)  -->
<svg version="1.1" xmlns="http://www.w3.org/2000/svg" xmlns:xlink="http://www.w3.org/1999/xlink" x="0px" y="0px"
	 viewBox="0 0 1920 1080" style="enable-background:new 0 0 1920 1080;" xml:space="preserve">
<style type="text/css">
	.st0{fill:#FFFFFF;}
</style>
<g id="Слой_1">
</g>
<g id="Слой_2">
	<path d="M969.61,359.76c0,59.54-45.35,107.81-101.3,107.81c-27.05,0-51.62-11.28-69.78-29.66c-19.41-19.64-31.52-47.39-31.52-78.15
		c0-59.54,45.35-107.81,101.3-107.81C924.25,251.96,969.61,300.22,969.61,359.76z"/>
	<path d="M802.01,441.28c-5.89,36.28-27.57,41.16-27.57,41.16c-22.3,14.87,8.67,10.53,8.67,10.53s23.6-2.56,29.15-43.41"/>
	<path d="M856.23,464.59c-3.72,45.54-18.59,62.69-25.79,66.93c-2,1.18-4.33,1.76-6.66,1.79c-30.65,0.4-7.2-13.08-7.2-13.08
		s22.56-7.82,28.01-55.65"/>
	<path d="M880.53,466.77c-2.46,17.35,8.95,39.64,16.31,51.87c3.6,5.98,9.65,10.08,16.52,11.25c25.75,4.35,9.3-8.14,3.5-12.16
		c-1.48-1.03-2.82-2.21-4.03-3.55c-5.92-6.51-21.45-25.9-20.83-49.58"/>
	<path d="M923.97,449.83c1.48,13.88,12.75,30.24,19.07,38.46c2.77,3.6,6.81,6.02,11.3,6.71c24.57,3.77,2.88-16.28,2.88-16.28
		s-24.36-22.43-24.57-35.69"/>
	<circle class="st0" cx="824.19" cy="430.23" r="11.92"/>
	<circle class="st0" cx="915.28" cy="429.79" r="11.48"/>
	<circle cx="832.11" cy="426.13" r="9.68"/>
	<circle cx="921.02" cy="426.13" r="9.68"/>
</g>
</svg>
