<?xml version="1.0" encoding="UTF-8"?>
<svg id="_Слой_2" data-name="Слой 2" xmlns="http://www.w3.org/2000/svg" viewBox="0 0 64 64">
  <defs>
    <style>
      .cls-1 {
        fill: #fdfdfd;
      }

      .cls-2 {
        fill: #fbfbfb;
      }

      .cls-3 {
        fill: #070707;
      }

      .cls-4 {
        fill: #eee;
      }

      .cls-5 {
        fill: #010101;
      }

      .cls-6 {
        fill: #fefefe;
      }

      .cls-7 {
        fill: #fcfcfc;
      }
    </style>
  </defs>
  <g id="_Слой_1-2" data-name="Слой 1">
    <g>
      <path class="cls-5" d="M22.02,.07h1c.51,.41,1.43,.74,1.4,1.32-.24,5.65,3.14,5.48,7.09,4.55,.63-.15,1.34-.1,1.97,.08,3.71,1.05,6.21,.52,5.91-4.17-.05-.86,.95-1.27,1.59-1.77h1c.96,.75,2.18,.67,3.27,1.01,3.44,1.08,4.29,2.75,1.97,5.24-2.33,2.51-1.49,3.85,.66,5.57,1.81,1.45,3.41,3.16,4.9,4.95,1.23,1.49,2.25,1.97,4.13,.59,4.01-2.93,4.93-2.47,6.21,2.28,.21,.78,.16,1.67,.8,2.3v1c-.41,.51-.74,1.43-1.32,1.4-5.65-.24-5.48,3.14-4.55,7.09,.15,.63,.1,1.34-.08,1.97-1.05,3.71-.52,6.21,4.17,5.91,.86-.05,1.27,.95,1.77,1.59v1c-.75,.96-.67,2.18-1.01,3.27-1.08,3.44-2.75,4.29-5.24,1.97-2.51-2.33-3.85-1.49-5.57,.66-1.45,1.81-3.16,3.41-4.95,4.9-1.49,1.23-1.97,2.25-.59,4.13,2.93,4.01,2.47,4.93-2.28,6.21-.78,.21-1.67,.16-2.3,.8h-1c-.51-.41-1.43-.74-1.4-1.32,.24-5.65-3.14-5.48-7.09-4.55-.63,.15-1.34,.1-1.97-.08-3.71-1.05-6.21-.52-5.91,4.17,.05,.86-.95,1.27-1.59,1.77h-1c-.96-.75-2.18-.67-3.27-1.01-3.44-1.08-4.29-2.75-1.97-5.24,2.33-2.51,1.49-3.85-.66-5.57-1.81-1.45-3.41-3.16-4.9-4.95-1.23-1.49-2.25-1.97-4.13-.59-4.01,2.93-4.93,2.47-6.21-2.28-.21-.78-.16-1.67-.8-2.3v-1c.41-.51,.74-1.43,1.32-1.4,5.65,.24,5.48-3.14,4.55-7.09-.15-.63-.1-1.34,.08-1.97,1.05-3.71,.52-6.21-4.17-5.91-.86,.05-1.27-.95-1.77-1.59v-1c.75-.96,.67-2.18,1.01-3.27,1.08-3.44,2.75-4.29,5.24-1.97,2.51,2.33,3.85,1.49,5.57-.66,1.45-1.81,3.16-3.41,4.95-4.9,1.49-1.23,1.97-2.25,.59-4.13-2.93-4.01-2.47-4.93,2.28-6.21,.78-.21,1.67-.16,2.3-.8Z"/>
      <path class="cls-1" d="M22.02,.07c-.47,1.35-1.88,1.19-2.84,1.66-3.95,1.91-3.86,1.7-.37,4.62,1.59,1.33,2.97,3.25-.11,5.02-3.03,1.74-5.55,4.23-7.28,7.27-1.71,3.02-4.1,2.02-4.91,.21-2.28-5.06-3.32-3.12-4.75,.33-.41,.99-.43,2.33-1.69,2.85C.07,15.54,.19,9.05,0,2.57-.06,.41,.41-.06,2.57,0c6.48,.18,12.97,.07,19.45,.07Z"/>
      <path class="cls-1" d="M63.93,22.02c-1.35-.47-1.2-1.88-1.65-2.84-1.42-3.06-2.38-5.59-4.71-.38-.76,1.7-3.16,2.98-4.93-.1-1.74-3.03-4.23-5.54-7.27-7.27-3.02-1.72-1.88-3.58-.22-5.01,3.49-2.98,3.58-2.79-.32-4.65-.98-.46-2.33-.43-2.84-1.7C48.46,.07,54.95,.19,61.43,0c2.15-.06,2.62,.41,2.56,2.56-.18,6.48-.07,12.97-.07,19.45Z"/>
      <path class="cls-1" d="M41.98,63.93c.46-1.36,1.88-1.2,2.84-1.65,3.05-1.42,5.6-2.38,.38-4.71-1.71-.76-2.98-3.16,.1-4.93,3.03-1.74,5.55-4.23,7.28-7.27,1.72-3.02,3.58-1.89,5.01-.22,2.98,3.48,2.8,3.57,4.65-.32,.46-.98,.43-2.33,1.7-2.85,0,6.49-.12,12.97,.07,19.45,.06,2.15-.41,2.62-2.56,2.56-6.48-.18-12.97-.07-19.45-.07Z"/>
      <path class="cls-1" d="M.07,41.98c1.35,.47,1.2,1.88,1.65,2.84,1.42,3.07,2.38,5.59,4.71,.38,.75-1.69,3.16-3,4.93,.09,1.74,3.03,4.23,5.55,7.27,7.28,3.01,1.71,2.04,4.09,.22,4.91-5.03,2.28-3.1,3.32,.32,4.76,.99,.41,2.33,.42,2.86,1.68-6.49,0-12.97-.12-19.45,.07-2.15,.06-2.62-.41-2.56-2.56,.18-6.48,.07-12.97,.07-19.45Z"/>
      <path class="cls-7" d="M40.98,.07c-.36,.73-1.18,1.63-1,2.17,2.41,6.89-1.58,6.06-6.01,5.32-2.04-.34-4.25,.07-6.36,.35-3.49,.47-5.58,0-3.62-4.22,.6-1.29-.15-2.54-.98-3.62,5.99,0,11.97,0,17.96,0Z"/>
      <path class="cls-2" d="M.07,23.02c.73,.36,1.63,1.18,2.17,.99,6.89-2.42,6.05,1.59,5.32,6.01-.34,2.05,.07,4.25,.35,6.36,.47,3.5,0,5.58-4.22,3.63-1.29-.6-2.54,.15-3.62,.97,0-5.99,0-11.97,0-17.96Z"/>
      <path class="cls-2" d="M63.93,40.98c-.73-.35-1.63-1.18-2.17-.99-6.91,2.42-6.04-1.6-5.31-6.01,.34-2.05-.07-4.25-.36-6.35-.47-3.49,0-5.58,4.22-3.63,1.3,.6,2.54-.16,3.62-.97v17.96Z"/>
      <path class="cls-7" d="M23.02,63.93c.36-.73,1.18-1.63,.99-2.17-2.43-6.91,1.59-6.05,6.01-5.31,2.04,.34,4.25-.07,6.35-.36,3.5-.47,5.58,0,3.63,4.22-.6,1.3,.16,2.54,.97,3.62H23.02Z"/>
      <path class="cls-6" d="M32.25,52.86c-11.19,.14-20.84-9.11-21.11-20.23-.28-11.83,9.01-21.36,20.85-21.4,11.58-.04,20.77,9.17,20.85,20.89,.08,11.05-9.4,20.59-20.6,20.73Z"/>
      <path class="cls-3" d="M29.13,27.08c-.23,3.55-2.08,5.71-5.52,5.79-3.44,.08-5.58-1.89-5.67-5.46-.09-3.58,1.94-5.61,5.42-5.69,3.47-.08,5.43,1.9,5.78,5.35Z"/>
      <path class="cls-3" d="M40.55,42.33c-3.71-.36-5.74-2.23-5.6-5.78,.14-3.51,2.33-5.53,5.75-5.42,3.42,.1,5.44,2.23,5.36,5.78-.08,3.63-2.29,5.21-5.51,5.43Z"/>
      <path d="M40.56,25.26c-1.15,.07-1.83-.37-1.82-1.62,0-1.05,.21-1.89,1.5-1.96,1.36-.08,2.12,.4,2.11,1.89-.01,1.24-.6,1.75-1.79,1.7Z"/>
      <path d="M23.68,42.33c-1.3,.05-1.95-.41-2.02-1.65-.08-1.48,.63-2,2.02-1.95,1.26,.05,1.62,.75,1.59,1.87-.03,1.15-.49,1.83-1.59,1.72Z"/>
      <path class="cls-4" d="M23.29,29.04c-1.23-.15-1.61-.95-1.48-2.05,.11-.93,.81-1.53,1.62-1.52,1.05,.01,1.77,.68,1.73,1.87-.04,1.21-.7,1.73-1.87,1.7Z"/>
      <path class="cls-4" d="M42.21,36.77c-.13,1.15-.77,1.87-1.89,1.74-1.12-.14-1.61-1-1.48-2.12,.11-.94,.75-1.43,1.64-1.43,1.16,0,1.76,.65,1.73,1.81Z"/>
    </g>
  </g>
</svg>